<?xml version="1.0" encoding="utf-8"?>
<svg version="1.1" xmlns:xlink="http://www.w3.org/1999/xlink" width="31px" height="109px" xmlns="http://www.w3.org/2000/svg">
  <g transform="matrix(1 0 0 1 -500 -336 )">
    <path d="M 30 107.495327102804  L 30 0.504672897196258  C 0 0.504672897196258  30 54  0 54  C 5.50759428059837 54  8.99294891055143 55.8030061931922  11.1985755921187 58.747003473076  C 21.0070510894486 71.8390309794839  5.50759428059837 107.495327102804  30 107.495327102804  Z " fill-rule="nonzero" fill="#ffffff" stroke="none" transform="matrix(1 0 0 1 500 336 )" />
    <path d="M 30 0.504672897196258  C 0 0.504672897196258  30 54  0 54  C 5.50759428059837 54  8.99294891055143 55.8030061931922  11.1985755921187 58.747003473076  C 21.0070510894486 71.8390309794839  5.50759428059837 107.495327102804  30 107.495327102804  " stroke-width="1" stroke="#797979" fill="none" transform="matrix(1 0 0 1 500 336 )" />
  </g>
</svg>